<svg width="800" height="638" viewBox="0 0 800 638" fill="none" xmlns="http://www.w3.org/2000/svg">
<path d="M392.333 293.667H331.867V192.4H403.6C442.6 192.4 464.733 209.8 464.733 241.267C464.733 274.867 438.967 293.667 392.267 293.667H392.333ZM403.133 333.867H331.9V445.467H406.267C454.9 445.467 480.667 425.967 480.667 389.3C480.667 352.633 454.167 333.867 403.133 333.867ZM800 298.667V339.267C762.4 342.867 739.433 370.733 725.8 414.867C712.233 458.833 710.367 512.767 711.8 554.4C713.3 597.733 679.533 637.733 633.9 637.733H166.167C120.5 637.733 86.7333 597.733 88.2667 554.4C89.7 512.767 87.8333 458.833 74.2667 414.867C60.6 370.733 37.6 342.867 0 339.267V298.667C37.6 295.067 60.6333 267.2 74.2333 223.067C87.8333 179.1 89.7 125.167 88.2333 83.5333C86.7333 40.1999 120.5 0.199951 166.167 0.199951H633.9C679.567 0.199951 713.3 40.1999 711.8 83.5333C710.367 125.167 712.233 179.1 725.8 223.067C739.433 267.2 762.4 295.067 800 298.667ZM535.767 392.567C535.767 347.433 504 314.8 456.833 309.633V307.733C491.5 302.1 518.7 269.9 518.7 233.967C518.7 182.733 478.267 149.367 416.633 149.367H277.967V488.433H417.333C491.267 488.433 535.767 452.233 535.767 392.567Z" fill="#F2F7FB"/>
</svg>
