<svg class="hero-content-right__magnetic-block_details" viewBox="0 0 512 512" version="1.1" xmlns="http://www.w3.org/2000/svg" xmlns:xlink="http://www.w3.org/1999/xlink" xml:space="preserve" xmlns:serif="http://www.serif.com/" style="fill-rule:evenodd;clip-rule:evenodd;stroke-linejoin: round;stroke-miterlimit: 2;">
        <g >
                <g id="docker-svgrepo-com.svg">
                        <path fill="#f2f7fb" d="M296,226L338,226M246,226L288,226M197,226L239,226M148,226L189,226M98,226L140,226M148,180L189,180M197,180L239,180M246,180L288,180M246,134L288,134" style="fill:none;fill-rule:nonzero;stroke:#fff;stroke-width:38px;"></path>
                        <path fill="#f2f7fb" d="M472,228C472,228 454,211 417,217C413,188 382,171 382,171C382,171 353,206 374,245C368,248 358,252 343,252L68,252C63,271 63,397 201,397C300,397 374,351 409,267C461,271 472,228 472,228" style="fill-rule:nonzero;"></path>
                </g>
                <g id="docker-svgrepo-com.svg1" serif:id="docker-svgrepo-com.svg"></g>
        </g>
</svg>