<svg width="213" height="55" viewBox="0 0 213 55" fill="none" xmlns="http://www.w3.org/2000/svg">
<rect width="102" height="55" fill="white"/>
<path d="M113.709 38V18.0938H118.863C119.784 18.0938 120.645 18.2077 121.447 18.4355C122.249 18.6543 122.979 18.9688 123.635 19.3789C124.209 19.7161 124.719 20.1309 125.166 20.623C125.622 21.1061 126.018 21.6348 126.355 22.209C126.747 22.9108 127.048 23.6855 127.258 24.5332C127.477 25.3809 127.586 26.2832 127.586 27.2402V28.8809C127.586 29.8014 127.486 30.6719 127.285 31.4922C127.085 32.3125 126.802 33.0645 126.438 33.748C126.091 34.3587 125.686 34.9238 125.221 35.4434C124.756 35.9538 124.245 36.3822 123.689 36.7285C123.042 37.1387 122.327 37.4531 121.543 37.6719C120.768 37.8906 119.939 38 119.055 38H113.709ZM117.578 21.2109V34.9102H119.055C119.529 34.9102 119.971 34.8509 120.381 34.7324C120.791 34.6139 121.165 34.4408 121.502 34.2129C121.848 33.9759 122.158 33.6751 122.432 33.3105C122.714 32.9368 122.956 32.5039 123.156 32.0117C123.32 31.5833 123.443 31.1094 123.525 30.5898C123.617 30.0612 123.662 29.4915 123.662 28.8809V27.2129C123.662 26.6387 123.617 26.0964 123.525 25.5859C123.443 25.0664 123.32 24.5924 123.156 24.1641C122.956 23.6536 122.691 23.1979 122.363 22.7969C122.044 22.3958 121.671 22.0677 121.242 21.8125C120.914 21.6211 120.549 21.4753 120.148 21.375C119.757 21.2656 119.328 21.2109 118.863 21.2109H117.578ZM130.225 30.4668C130.225 29.3913 130.38 28.3978 130.689 27.4863C130.999 26.5658 131.455 25.7682 132.057 25.0938C132.649 24.4193 133.374 23.8906 134.23 23.5078C135.096 23.125 136.085 22.9336 137.197 22.9336C138.309 22.9336 139.298 23.125 140.164 23.5078C141.03 23.8906 141.764 24.4193 142.365 25.0938C142.958 25.7682 143.409 26.5658 143.719 27.4863C144.029 28.3978 144.184 29.3913 144.184 30.4668V30.7539C144.184 31.8385 144.029 32.8411 143.719 33.7617C143.409 34.6732 142.958 35.4661 142.365 36.1406C141.773 36.8151 141.044 37.3438 140.178 37.7266C139.312 38.1003 138.327 38.2871 137.225 38.2871C136.113 38.2871 135.119 38.1003 134.244 37.7266C133.378 37.3438 132.649 36.8151 132.057 36.1406C131.455 35.4661 130.999 34.6732 130.689 33.7617C130.38 32.8411 130.225 31.8385 130.225 30.7539V30.4668ZM134.025 30.7539C134.025 31.3737 134.085 31.957 134.203 32.5039C134.322 33.0417 134.508 33.5111 134.764 33.9121C135.019 34.3223 135.347 34.6458 135.748 34.8828C136.158 35.1198 136.65 35.2383 137.225 35.2383C137.781 35.2383 138.259 35.1198 138.66 34.8828C139.061 34.6458 139.389 34.3223 139.645 33.9121C139.891 33.5111 140.073 33.0417 140.191 32.5039C140.31 31.957 140.369 31.3737 140.369 30.7539V30.4668C140.369 29.8652 140.31 29.2956 140.191 28.7578C140.073 28.2201 139.891 27.7461 139.645 27.3359C139.389 26.9258 139.061 26.6022 138.66 26.3652C138.259 26.1283 137.771 26.0098 137.197 26.0098C136.632 26.0098 136.149 26.1283 135.748 26.3652C135.347 26.6022 135.019 26.9258 134.764 27.3359C134.508 27.7461 134.322 28.2201 134.203 28.7578C134.085 29.2956 134.025 29.8652 134.025 30.4668V30.7539ZM157.104 33.9395C157.104 33.7116 157.049 33.5111 156.939 33.3379C156.839 33.1647 156.657 33.0007 156.393 32.8457C156.119 32.6999 155.759 32.5632 155.312 32.4355C154.866 32.3079 154.301 32.1803 153.617 32.0527C152.751 31.8796 151.958 31.6654 151.238 31.4102C150.527 31.1458 149.917 30.8268 149.406 30.4531C148.896 30.0885 148.495 29.6647 148.203 29.1816C147.921 28.6986 147.779 28.1426 147.779 27.5137C147.779 26.903 147.925 26.3197 148.217 25.7637C148.508 25.2077 148.928 24.7201 149.475 24.3008C150.021 23.8815 150.687 23.5488 151.471 23.3027C152.255 23.0566 153.139 22.9336 154.123 22.9336C155.153 22.9336 156.078 23.0566 156.898 23.3027C157.719 23.5397 158.416 23.8678 158.99 24.2871C159.555 24.7155 159.988 25.2214 160.289 25.8047C160.59 26.388 160.74 27.0215 160.74 27.7051H156.939C156.939 27.459 156.898 27.2311 156.816 27.0215C156.734 26.8027 156.611 26.6068 156.447 26.4336C156.219 26.2057 155.91 26.0234 155.518 25.8867C155.135 25.75 154.67 25.6816 154.123 25.6816C153.658 25.6816 153.253 25.7272 152.906 25.8184C152.56 25.9095 152.277 26.0371 152.059 26.2012C151.858 26.347 151.703 26.5202 151.594 26.7207C151.493 26.9121 151.443 27.1172 151.443 27.3359C151.443 27.5547 151.489 27.7598 151.58 27.9512C151.671 28.1335 151.835 28.2975 152.072 28.4434C152.3 28.5983 152.615 28.7396 153.016 28.8672C153.417 28.9857 153.927 29.0905 154.547 29.1816C155.44 29.3275 156.27 29.5143 157.035 29.7422C157.801 29.9701 158.462 30.2617 159.018 30.6172C159.574 30.9818 160.007 31.4238 160.316 31.9434C160.635 32.4538 160.795 33.0645 160.795 33.7754C160.795 34.4316 160.635 35.0378 160.316 35.5938C160.007 36.1406 159.564 36.6146 158.99 37.0156C158.407 37.4167 157.705 37.7311 156.885 37.959C156.064 38.1777 155.148 38.2871 154.137 38.2871C153.025 38.2871 152.04 38.1413 151.184 37.8496C150.336 37.5579 149.625 37.1751 149.051 36.7012C148.477 36.2363 148.039 35.7077 147.738 35.1152C147.447 34.5137 147.301 33.9121 147.301 33.3105H150.924C150.951 33.7116 151.061 34.0579 151.252 34.3496C151.443 34.6322 151.689 34.86 151.99 35.0332C152.291 35.2155 152.633 35.3477 153.016 35.4297C153.408 35.5117 153.809 35.5527 154.219 35.5527C154.711 35.5527 155.139 35.5117 155.504 35.4297C155.878 35.3385 156.183 35.2201 156.42 35.0742C156.648 34.9284 156.816 34.7598 156.926 34.5684C157.044 34.377 157.104 34.1673 157.104 33.9395ZM171.555 38.2734C170.415 38.2734 169.381 38.0866 168.451 37.7129C167.521 37.3392 166.724 36.8288 166.059 36.1816C165.393 35.5436 164.878 34.7917 164.514 33.9258C164.158 33.0508 163.98 32.1165 163.98 31.123V30.5762C163.98 29.446 164.158 28.416 164.514 27.4863C164.869 26.5475 165.366 25.7409 166.004 25.0664C166.642 24.3919 167.398 23.8678 168.273 23.4941C169.148 23.1204 170.101 22.9336 171.131 22.9336C172.197 22.9336 173.145 23.1113 173.975 23.4668C174.813 23.8132 175.524 24.3053 176.107 24.9434C176.682 25.5814 177.119 26.3516 177.42 27.2539C177.721 28.1471 177.871 29.1361 177.871 30.2207V31.834H167.836V31.875C167.964 32.4674 168.128 32.946 168.328 33.3105C168.529 33.666 168.798 33.9896 169.135 34.2812C169.481 34.582 169.878 34.8145 170.324 34.9785C170.771 35.1426 171.258 35.2246 171.787 35.2246C172.535 35.2246 173.259 35.0833 173.961 34.8008C174.663 34.5182 175.232 34.0944 175.67 33.5293L177.57 35.5801C177.087 36.2637 176.322 36.8835 175.273 37.4395C174.225 37.9954 172.986 38.2734 171.555 38.2734ZM171.104 26.0098C170.675 26.0098 170.283 26.0872 169.928 26.2422C169.572 26.388 169.262 26.6022 168.998 26.8848C168.725 27.1673 168.497 27.5046 168.314 27.8965C168.132 28.2884 167.995 28.7259 167.904 29.209H174.139V28.9082C174.139 28.5072 174.066 28.1289 173.92 27.7734C173.774 27.418 173.574 27.1081 173.318 26.8438C173.063 26.5885 172.749 26.388 172.375 26.2422C172.01 26.0872 171.587 26.0098 171.104 26.0098ZM181.193 38V23.207H184.639L184.871 25.2578C185.062 24.9844 185.272 24.7337 185.5 24.5059C185.728 24.278 185.969 24.0729 186.225 23.8906C186.662 23.5807 187.141 23.3438 187.66 23.1797C188.18 23.0156 188.731 22.9336 189.314 22.9336C190.062 22.9336 190.745 23.043 191.365 23.2617C191.985 23.4805 192.523 23.8268 192.979 24.3008C193.425 24.7839 193.771 25.4036 194.018 26.1602C194.273 26.9076 194.4 27.819 194.4 28.8945V38H190.6V28.9492C190.6 28.3659 190.531 27.8874 190.395 27.5137C190.267 27.1309 190.08 26.8301 189.834 26.6113C189.588 26.3926 189.292 26.2422 188.945 26.1602C188.599 26.069 188.207 26.0234 187.77 26.0234C187.405 26.0234 187.068 26.0645 186.758 26.1465C186.457 26.2285 186.188 26.3516 185.951 26.5156C185.76 26.6341 185.587 26.7754 185.432 26.9395C185.277 27.1035 185.135 27.2858 185.008 27.4863V38H181.193ZM204.982 19.584V23.207H210.506V26.0098H204.982V32.3672C204.982 32.9049 205.042 33.3561 205.16 33.7207C205.288 34.0762 205.465 34.3587 205.693 34.5684C205.921 34.7871 206.195 34.9421 206.514 35.0332C206.842 35.1243 207.206 35.1699 207.607 35.1699C207.899 35.1699 208.195 35.1562 208.496 35.1289C208.806 35.1016 209.102 35.0651 209.385 35.0195C209.658 34.9831 209.913 34.9421 210.15 34.8965C210.396 34.8509 210.606 34.8053 210.779 34.7598L211.148 37.3711C210.884 37.526 210.574 37.6628 210.219 37.7812C209.863 37.8906 209.485 37.9818 209.084 38.0547C208.683 38.1276 208.264 38.1823 207.826 38.2188C207.398 38.2643 206.974 38.2871 206.555 38.2871C205.743 38.2871 205.005 38.1823 204.34 37.9727C203.684 37.7539 203.123 37.4167 202.658 36.9609C202.184 36.5143 201.82 35.9447 201.564 35.252C201.309 34.5501 201.182 33.7116 201.182 32.7363V26.0098H197.805V23.207H201.182V19.584H204.982Z" fill="white"/>
<path d="M20.5801 33.8438H14.6055L13.4297 38H9.38281L15.9043 18.0938H19.3906L25.7891 38H21.7422L20.5801 33.8438ZM15.5488 30.5762H19.6777L17.6406 23.248L15.5488 30.5762ZM38.3672 22.9336C38.9414 22.9336 39.4701 22.9746 39.9531 23.0566C40.4453 23.1296 40.8418 23.2116 41.1426 23.3027L40.582 27.0898C40.0807 26.9714 39.5658 26.8848 39.0371 26.8301C38.5176 26.7663 38.0208 26.7344 37.5469 26.7344C37.0547 26.7344 36.6081 26.7799 36.207 26.8711C35.8151 26.9531 35.4642 27.0807 35.1543 27.2539C34.7806 27.4544 34.4616 27.7096 34.1973 28.0195C33.9329 28.3294 33.7142 28.694 33.541 29.1133V38H29.7402V23.207H33.2812L33.4316 25.2988L33.459 25.627C34.0605 24.7884 34.7806 24.1322 35.6191 23.6582C36.4577 23.1751 37.3737 22.9336 38.3672 22.9336ZM51.5332 19.584V23.207H57.0566V26.0098H51.5332V32.3672C51.5332 32.9049 51.5924 33.3561 51.7109 33.7207C51.8385 34.0762 52.0163 34.3587 52.2441 34.5684C52.472 34.7871 52.7454 34.9421 53.0645 35.0332C53.3926 35.1243 53.7572 35.1699 54.1582 35.1699C54.4499 35.1699 54.7461 35.1562 55.0469 35.1289C55.3568 35.1016 55.653 35.0651 55.9355 35.0195C56.209 34.9831 56.4642 34.9421 56.7012 34.8965C56.9473 34.8509 57.1569 34.8053 57.3301 34.7598L57.6992 37.3711C57.4349 37.526 57.125 37.6628 56.7695 37.7812C56.4141 37.8906 56.0358 37.9818 55.6348 38.0547C55.2337 38.1276 54.8145 38.1823 54.377 38.2188C53.9486 38.2643 53.5247 38.2871 53.1055 38.2871C52.2943 38.2871 51.556 38.1823 50.8906 37.9727C50.2344 37.7539 49.6738 37.4167 49.209 36.9609C48.735 36.5143 48.3704 35.9447 48.1152 35.252C47.86 34.5501 47.7324 33.7116 47.7324 32.7363V26.0098H44.3555V23.207H47.7324V19.584H51.5332ZM71.0293 38L70.8105 35.9219C70.3092 36.6602 69.7031 37.2389 68.9922 37.6582C68.2904 38.0775 67.5202 38.2871 66.6816 38.2871C65.916 38.2871 65.2142 38.1686 64.5762 37.9316C63.9382 37.6947 63.3913 37.3164 62.9355 36.7969C62.4798 36.2865 62.1243 35.6348 61.8691 34.8418C61.623 34.0397 61.5 33.0781 61.5 31.957V23.207H65.3008V31.9844C65.3008 32.5859 65.3418 33.0918 65.4238 33.502C65.515 33.9121 65.6562 34.2402 65.8477 34.4863C66.0391 34.7415 66.2897 34.9238 66.5996 35.0332C66.9095 35.1426 67.2878 35.1973 67.7344 35.1973C68.1354 35.1973 68.4954 35.1562 68.8145 35.0742C69.1426 34.9922 69.4297 34.8737 69.6758 34.7188C69.8854 34.582 70.0723 34.418 70.2363 34.2266C70.4004 34.0352 70.5417 33.821 70.6602 33.584V23.207H74.4746V38H71.0293ZM88.8164 22.9336C89.3906 22.9336 89.9193 22.9746 90.4023 23.0566C90.8945 23.1296 91.291 23.2116 91.5918 23.3027L91.0312 27.0898C90.5299 26.9714 90.015 26.8848 89.4863 26.8301C88.9668 26.7663 88.4701 26.7344 87.9961 26.7344C87.5039 26.7344 87.0573 26.7799 86.6562 26.8711C86.2643 26.9531 85.9134 27.0807 85.6035 27.2539C85.2298 27.4544 84.9108 27.7096 84.6465 28.0195C84.3822 28.3294 84.1634 28.694 83.9902 29.1133V38H80.1895V23.207H83.7305L83.8809 25.2988L83.9082 25.627C84.5098 24.7884 85.2298 24.1322 86.0684 23.6582C86.9069 23.1751 87.8229 22.9336 88.8164 22.9336Z" fill="black"/>
</svg>
